<svg xmlns="http://www.w3.org/2000/svg" width="32" height="32" viewBox="0 0 550 455">
  <defs>
    <style>
      .st0 { fill: #85b8c6; }
      .st1 { fill: #e23489; }
      .st2 { fill: #d8d8dc; }
      .st3 { fill: #3e93ae; }
      .st4 { fill: none; stroke: #222; stroke-linecap: round; stroke-linejoin: round; stroke-width: 28px; }
      .st5 { fill: #222; }
    </style>
  </defs>
  <g id="Layer_1">
    <path class="st5" d="M409.2,270.2l48.8-84.6,1.2-2-1.2-2-52.3-90.6-1.2-2h-100L255.8,4.4l-1.2-2h-109.2l-1.2,2-52.3,90.6-1.2,2,1.2,2,48.8,84.6-48.8,84.6-1.2,2,1.2,2,52.3,90.6,1.2,2h100l48.8,84.6,1.2,2h109.2l1.2-2,52.3-90.6,1.2-2-1.2-2-48.8-84.6Z"/>
  </g>
  <g id="Layer_2">
    <polygon class="st3" points="397.7 274.2 302.3 274.2 254.6 356.8 302.3 439.4 397.7 439.4 445.4 356.8 397.7 274.2"/>
    <polygon class="st0" points="247.7 187.6 152.3 187.6 104.6 270.2 152.3 352.8 247.7 352.8 295.4 270.2 247.7 187.6"/>
    <polygon class="st2" points="247.7 14.4 152.3 14.4 104.6 97 152.3 179.6 247.7 179.6 295.4 97 247.7 14.4"/>
    <polygon class="st1" points="302.3 266.2 397.7 266.2 445.4 183.6 397.7 101 302.3 101 254.6 183.6 302.3 266.2"/>
  </g>
  <g id="Layer_3">
    <circle class="st5" cx="30" cy="270.2" r="27.2"/>
    <circle class="st5" cx="520" cy="183.6" r="28.1"/>
    <polyline class="st4" points="30 270.2 100 270.2 150 183.6 250 183.6 300 270.2 400 270.2 450 183.6 520 183.6"/>
  </g>
</svg>
